<?xml version="1.0" standalone="no"?>
<svg xmlns:xlink="http://www.w3.org/1999/xlink" id="wave" style="transform:rotate(180deg); transition: 0.3s" viewBox="0 0 1440 100" version="1.1" xmlns="http://www.w3.org/2000/svg"><defs><linearGradient id="sw-gradient-0" x1="0" x2="0" y1="1" y2="0"><stop stop-color="rgba(248, 174, 194, 1)" offset="0%"/><stop stop-color="rgba(241, 123, 144, 1)" offset="100%"/></linearGradient></defs><path style="transform:translate(0, 0px); opacity:1" fill="url(#sw-gradient-0)" d="M0,20L48,28.3C96,37,192,53,288,50C384,47,480,23,576,25C672,27,768,53,864,55C960,57,1056,33,1152,21.7C1248,10,1344,10,1440,16.7C1536,23,1632,37,1728,48.3C1824,60,1920,70,2016,65C2112,60,2208,40,2304,26.7C2400,13,2496,7,2592,3.3C2688,0,2784,0,2880,1.7C2976,3,3072,7,3168,6.7C3264,7,3360,3,3456,15C3552,27,3648,53,3744,63.3C3840,73,3936,67,4032,63.3C4128,60,4224,60,4320,65C4416,70,4512,80,4608,83.3C4704,87,4800,83,4896,71.7C4992,60,5088,40,5184,28.3C5280,17,5376,13,5472,21.7C5568,30,5664,50,5760,53.3C5856,57,5952,43,6048,35C6144,27,6240,23,6336,31.7C6432,40,6528,60,6624,71.7C6720,83,6816,87,6864,88.3L6912,90L6912,100L6864,100C6816,100,6720,100,6624,100C6528,100,6432,100,6336,100C6240,100,6144,100,6048,100C5952,100,5856,100,5760,100C5664,100,5568,100,5472,100C5376,100,5280,100,5184,100C5088,100,4992,100,4896,100C4800,100,4704,100,4608,100C4512,100,4416,100,4320,100C4224,100,4128,100,4032,100C3936,100,3840,100,3744,100C3648,100,3552,100,3456,100C3360,100,3264,100,3168,100C3072,100,2976,100,2880,100C2784,100,2688,100,2592,100C2496,100,2400,100,2304,100C2208,100,2112,100,2016,100C1920,100,1824,100,1728,100C1632,100,1536,100,1440,100C1344,100,1248,100,1152,100C1056,100,960,100,864,100C768,100,672,100,576,100C480,100,384,100,288,100C192,100,96,100,48,100L0,100Z"/></svg>