<?xml version="1.0" standalone="no"?>
<svg xmlns:xlink="http://www.w3.org/1999/xlink" id="wave" style="transform:rotate(180deg); transition: 0.3s" viewBox="0 0 1440 130" version="1.1" xmlns="http://www.w3.org/2000/svg"><defs><linearGradient id="sw-gradient-0" x1="0" x2="0" y1="1" y2="0"><stop stop-color="rgba(252, 199, 218, 1)" offset="0%"/><stop stop-color="rgba(252, 199, 218, 1)" offset="100%"/></linearGradient></defs><path style="transform:translate(0, 0px); opacity:1" fill="url(#sw-gradient-0)" d="M0,104L24,106.2C48,108,96,113,144,99.7C192,87,240,56,288,39C336,22,384,17,432,26C480,35,528,56,576,60.7C624,65,672,52,720,47.7C768,43,816,48,864,47.7C912,48,960,43,1008,47.7C1056,52,1104,65,1152,60.7C1200,56,1248,35,1296,41.2C1344,48,1392,82,1440,99.7C1488,117,1536,117,1584,99.7C1632,82,1680,48,1728,39C1776,30,1824,48,1872,56.3C1920,65,1968,65,2016,58.5C2064,52,2112,39,2160,34.7C2208,30,2256,35,2304,32.5C2352,30,2400,22,2448,28.2C2496,35,2544,56,2592,73.7C2640,91,2688,104,2736,110.5C2784,117,2832,117,2880,110.5C2928,104,2976,91,3024,71.5C3072,52,3120,26,3168,30.3C3216,35,3264,69,3312,80.2C3360,91,3408,78,3432,71.5L3456,65L3456,130L3432,130C3408,130,3360,130,3312,130C3264,130,3216,130,3168,130C3120,130,3072,130,3024,130C2976,130,2928,130,2880,130C2832,130,2784,130,2736,130C2688,130,2640,130,2592,130C2544,130,2496,130,2448,130C2400,130,2352,130,2304,130C2256,130,2208,130,2160,130C2112,130,2064,130,2016,130C1968,130,1920,130,1872,130C1824,130,1776,130,1728,130C1680,130,1632,130,1584,130C1536,130,1488,130,1440,130C1392,130,1344,130,1296,130C1248,130,1200,130,1152,130C1104,130,1056,130,1008,130C960,130,912,130,864,130C816,130,768,130,720,130C672,130,624,130,576,130C528,130,480,130,432,130C384,130,336,130,288,130C240,130,192,130,144,130C96,130,48,130,24,130L0,130Z"/></svg>